<?xml version="1.0" encoding="UTF-8" standalone="no"?>
<!DOCTYPE svg PUBLIC "-//W3C//DTD SVG 1.1//EN"
 "http://www.w3.org/Graphics/SVG/1.1/DTD/svg11.dtd">
<!-- Generated by graphviz version 2.47.0 (20210316.0004)
 -->
<!-- Title: dependencies Pages: 1 -->
<svg width="504pt" height="211pt"
 viewBox="0.00 0.00 504.00 211.00" xmlns="http://www.w3.org/2000/svg" xmlns:xlink="http://www.w3.org/1999/xlink">
<g id="graph0" class="graph" transform="scale(1 1) rotate(0) translate(4 207)">
<title>dependencies</title>
<polygon fill="white" stroke="transparent" points="-4,4 -4,-207 500,-207 500,4 -4,4"/>
<text text-anchor="start" x="227.01" y="-42.4" font-family="Times-12" font-weight="bold" font-size="14.00">Legend</text>
<polygon fill="#ffffb3" stroke="transparent" points="14,-10 14,-30 34,-30 34,-10 14,-10"/>
<text text-anchor="start" x="37.63" y="-15.4" font-family="Times-12" font-size="14.00"> &#160;Declarations</text>
<polygon fill="#8dd3c7" stroke="transparent" points="127,-10 127,-30 147,-30 147,-10 127,-10"/>
<text text-anchor="start" x="150.73" y="-15.4" font-family="Times-12" font-size="14.00"> &#160;Module</text>
<polygon fill="#80b1d3" stroke="transparent" points="213,-10 213,-30 233,-30 233,-10 213,-10"/>
<text text-anchor="start" x="236.78" y="-15.4" font-family="Times-12" font-size="14.00"> &#160;Bootstrap</text>
<polygon fill="#fdb462" stroke="transparent" points="310,-10 310,-30 330,-30 330,-10 310,-10"/>
<text text-anchor="start" x="333.67" y="-15.4" font-family="Times-12" font-size="14.00"> &#160;Providers</text>
<polygon fill="#fb8072" stroke="transparent" points="406,-10 406,-30 426,-30 426,-10 406,-10"/>
<text text-anchor="start" x="429.73" y="-15.4" font-family="Times-12" font-size="14.00"> &#160;Exports</text>
<g id="clust1" class="cluster">
<title>cluster_KeycloakModule</title>
<polygon fill="none" stroke="black" stroke-dasharray="1,5" points="87,-70 87,-195 409,-195 409,-70 87,-70"/>
</g>
<g id="clust3" class="cluster">
<title>cluster_KeycloakModule_imports</title>
<polygon fill="none" stroke="black" points="273,-78 273,-130 401,-130 401,-78 273,-78"/>
</g>
<g id="clust6" class="cluster">
<title>cluster_KeycloakModule_providers</title>
<polygon fill="none" stroke="black" points="95,-78 95,-130 265,-130 265,-78 95,-78"/>
</g>
<!-- CommonModule -->
<g id="node1" class="node">
<title>CommonModule</title>
<polygon fill="#8dd3c7" stroke="black" points="392.67,-122 389.67,-126 368.67,-126 365.67,-122 281.33,-122 281.33,-86 392.67,-86 392.67,-122"/>
<text text-anchor="middle" x="337" y="-99.8" font-family="Times,serif" font-size="14.00">CommonModule</text>
</g>
<!-- KeycloakModule -->
<g id="node2" class="node">
<title>KeycloakModule</title>
<polygon fill="#8dd3c7" stroke="black" points="314.69,-187 311.69,-191 290.69,-191 287.69,-187 201.31,-187 201.31,-151 314.69,-151 314.69,-187"/>
<text text-anchor="middle" x="258" y="-164.8" font-family="Times,serif" font-size="14.00">KeycloakModule</text>
</g>
<!-- CommonModule&#45;&gt;KeycloakModule -->
<g id="edge1" class="edge">
<title>CommonModule&#45;&gt;KeycloakModule</title>
<path fill="none" stroke="black" d="M297.88,-122.11C297.88,-122.11 297.88,-140.99 297.88,-140.99"/>
<polygon fill="black" stroke="black" points="294.38,-140.99 297.88,-150.99 301.38,-140.99 294.38,-140.99"/>
</g>
<!-- KeycloakService -->
<g id="node3" class="node">
<title>KeycloakService</title>
<ellipse fill="#fdb462" stroke="black" cx="180" cy="-104" rx="76.98" ry="18"/>
<text text-anchor="middle" x="180" y="-99.8" font-family="Times,serif" font-size="14.00">KeycloakService</text>
</g>
<!-- KeycloakService&#45;&gt;KeycloakModule -->
<g id="edge2" class="edge">
<title>KeycloakService&#45;&gt;KeycloakModule</title>
<path fill="none" stroke="black" d="M229.2,-118.1C229.2,-118.1 229.2,-140.72 229.2,-140.72"/>
<polygon fill="black" stroke="black" points="225.7,-140.72 229.2,-150.72 232.7,-140.72 225.7,-140.72"/>
</g>
</g>
</svg>
