<?xml version="1.0" encoding="UTF-8" standalone="no"?>
<!DOCTYPE svg PUBLIC "-//W3C//DTD SVG 1.1//EN"
 "http://www.w3.org/Graphics/SVG/1.1/DTD/svg11.dtd">
<!-- Generated by graphviz version 2.47.0 (20210316.0004)
 -->
<!-- Title: dependencies Pages: 1 -->
<svg width="504pt" height="211pt"
 viewBox="0.00 0.00 504.00 211.00" xmlns="http://www.w3.org/2000/svg" xmlns:xlink="http://www.w3.org/1999/xlink">
<g id="graph0" class="graph" transform="scale(1 1) rotate(0) translate(4 207)">
<title>dependencies</title>
<polygon fill="white" stroke="transparent" points="-4,4 -4,-207 500,-207 500,4 -4,4"/>
<text text-anchor="start" x="227.01" y="-42.4" font-family="Times-12" font-weight="bold" font-size="14.00">Legend</text>
<polygon fill="#ffffb3" stroke="transparent" points="14,-10 14,-30 34,-30 34,-10 14,-10"/>
<text text-anchor="start" x="37.63" y="-15.4" font-family="Times-12" font-size="14.00"> &#160;Declarations</text>
<polygon fill="#8dd3c7" stroke="transparent" points="127,-10 127,-30 147,-30 147,-10 127,-10"/>
<text text-anchor="start" x="150.73" y="-15.4" font-family="Times-12" font-size="14.00"> &#160;Module</text>
<polygon fill="#80b1d3" stroke="transparent" points="213,-10 213,-30 233,-30 233,-10 213,-10"/>
<text text-anchor="start" x="236.78" y="-15.4" font-family="Times-12" font-size="14.00"> &#160;Bootstrap</text>
<polygon fill="#fdb462" stroke="transparent" points="310,-10 310,-30 330,-30 330,-10 310,-10"/>
<text text-anchor="start" x="333.67" y="-15.4" font-family="Times-12" font-size="14.00"> &#160;Providers</text>
<polygon fill="#fb8072" stroke="transparent" points="406,-10 406,-30 426,-30 426,-10 406,-10"/>
<text text-anchor="start" x="429.73" y="-15.4" font-family="Times-12" font-size="14.00"> &#160;Exports</text>
<g id="clust1" class="cluster">
<title>cluster_UsersModule</title>
<polygon fill="none" stroke="black" stroke-dasharray="1,5" points="76.5,-70 76.5,-195 419.5,-195 419.5,-70 76.5,-70"/>
</g>
<g id="clust6" class="cluster">
<title>cluster_UsersModule_providers</title>
<polygon fill="none" stroke="black" points="84.5,-78 84.5,-130 411.5,-130 411.5,-78 84.5,-78"/>
</g>
<!-- UserProfileService -->
<g id="node1" class="node">
<title>UserProfileService</title>
<ellipse fill="#fdb462" stroke="black" cx="318.5" cy="-104" rx="84.5" ry="18"/>
<text text-anchor="middle" x="318.5" y="-99.8" font-family="Times,serif" font-size="14.00">UserProfileService</text>
</g>
<!-- UsersModule -->
<g id="node3" class="node">
<title>UsersModule</title>
<polygon fill="#8dd3c7" stroke="black" points="282.42,-187 279.42,-191 258.42,-191 255.42,-187 190.58,-187 190.58,-151 282.42,-151 282.42,-187"/>
<text text-anchor="middle" x="236.5" y="-164.8" font-family="Times,serif" font-size="14.00">UsersModule</text>
</g>
<!-- UserProfileService&#45;&gt;UsersModule -->
<g id="edge1" class="edge">
<title>UserProfileService&#45;&gt;UsersModule</title>
<path fill="none" stroke="black" d="M258.1,-116.84C258.1,-116.84 258.1,-140.52 258.1,-140.52"/>
<polygon fill="black" stroke="black" points="254.6,-140.52 258.1,-150.52 261.6,-140.52 254.6,-140.52"/>
</g>
<!-- UsersService -->
<g id="node2" class="node">
<title>UsersService</title>
<ellipse fill="#fdb462" stroke="black" cx="154.5" cy="-104" rx="61.95" ry="18"/>
<text text-anchor="middle" x="154.5" y="-99.8" font-family="Times,serif" font-size="14.00">UsersService</text>
</g>
<!-- UsersService&#45;&gt;UsersModule -->
<g id="edge2" class="edge">
<title>UsersService&#45;&gt;UsersModule</title>
<path fill="none" stroke="black" d="M203.63,-115.03C203.63,-115.03 203.63,-140.78 203.63,-140.78"/>
<polygon fill="black" stroke="black" points="200.13,-140.78 203.63,-150.78 207.13,-140.78 200.13,-140.78"/>
</g>
</g>
</svg>
