<?xml version="1.0" encoding="UTF-8" standalone="no"?>
<!DOCTYPE svg PUBLIC "-//W3C//DTD SVG 1.1//EN"
 "http://www.w3.org/Graphics/SVG/1.1/DTD/svg11.dtd">
<!-- Generated by graphviz version 2.47.0 (20210316.0004)
 -->
<!-- Title: dependencies Pages: 1 -->
<svg width="1142pt" height="284pt"
 viewBox="0.00 0.00 1142.00 284.00" xmlns="http://www.w3.org/2000/svg" xmlns:xlink="http://www.w3.org/1999/xlink">
<g id="graph0" class="graph" transform="scale(1 1) rotate(0) translate(4 280)">
<title>dependencies</title>
<polygon fill="white" stroke="transparent" points="-4,4 -4,-280 1138,-280 1138,4 -4,4"/>
<text text-anchor="start" x="546.01" y="-42.4" font-family="Times-12" font-weight="bold" font-size="14.00">Legend</text>
<polygon fill="#ffffb3" stroke="transparent" points="333,-10 333,-30 353,-30 353,-10 333,-10"/>
<text text-anchor="start" x="356.63" y="-15.4" font-family="Times-12" font-size="14.00"> &#160;Declarations</text>
<polygon fill="#8dd3c7" stroke="transparent" points="446,-10 446,-30 466,-30 466,-10 446,-10"/>
<text text-anchor="start" x="469.73" y="-15.4" font-family="Times-12" font-size="14.00"> &#160;Module</text>
<polygon fill="#80b1d3" stroke="transparent" points="532,-10 532,-30 552,-30 552,-10 532,-10"/>
<text text-anchor="start" x="555.78" y="-15.4" font-family="Times-12" font-size="14.00"> &#160;Bootstrap</text>
<polygon fill="#fdb462" stroke="transparent" points="629,-10 629,-30 649,-30 649,-10 629,-10"/>
<text text-anchor="start" x="652.67" y="-15.4" font-family="Times-12" font-size="14.00"> &#160;Providers</text>
<polygon fill="#fb8072" stroke="transparent" points="725,-10 725,-30 745,-30 745,-10 725,-10"/>
<text text-anchor="start" x="748.73" y="-15.4" font-family="Times-12" font-size="14.00"> &#160;Exports</text>
<g id="clust1" class="cluster">
<title>cluster_MailModule</title>
<polygon fill="none" stroke="black" stroke-dasharray="1,5" points="8,-70 8,-268 1126,-268 1126,-70 8,-70"/>
</g>
<g id="clust6" class="cluster">
<title>cluster_MailModule_providers</title>
<polygon fill="none" stroke="black" points="16,-78 16,-130 1118,-130 1118,-78 16,-78"/>
</g>
<g id="clust4" class="cluster">
<title>cluster_MailModule_exports</title>
<polygon fill="none" stroke="black" points="113,-208 113,-260 944,-260 944,-208 113,-208"/>
</g>
<!-- ChangePasswordMailService  -->
<g id="node1" class="node">
<title>ChangePasswordMailService </title>
<polygon fill="#fb8072" stroke="black" points="936.34,-252 751.66,-252 751.66,-216 936.34,-216 936.34,-252"/>
<text text-anchor="middle" x="844" y="-229.8" font-family="Times,serif" font-size="14.00">ChangePasswordMailService </text>
</g>
<!-- ConfirmCreateUserService  -->
<g id="node2" class="node">
<title>ConfirmCreateUserService </title>
<polygon fill="#fb8072" stroke="black" points="733.87,-252 562.13,-252 562.13,-216 733.87,-216 733.87,-252"/>
<text text-anchor="middle" x="648" y="-229.8" font-family="Times,serif" font-size="14.00">ConfirmCreateUserService </text>
</g>
<!-- ResetPasswordMailService  -->
<g id="node3" class="node">
<title>ResetPasswordMailService </title>
<polygon fill="#fb8072" stroke="black" points="544.17,-252 371.83,-252 371.83,-216 544.17,-216 544.17,-252"/>
<text text-anchor="middle" x="458" y="-229.8" font-family="Times,serif" font-size="14.00">ResetPasswordMailService </text>
</g>
<!-- TwoFactorAuthenticationMailService  -->
<g id="node4" class="node">
<title>TwoFactorAuthenticationMailService </title>
<polygon fill="#fb8072" stroke="black" points="353.04,-252 120.96,-252 120.96,-216 353.04,-216 353.04,-252"/>
<text text-anchor="middle" x="237" y="-229.8" font-family="Times,serif" font-size="14.00">TwoFactorAuthenticationMailService </text>
</g>
<!-- MailModule -->
<g id="node5" class="node">
<title>MailModule</title>
<polygon fill="#8dd3c7" stroke="black" points="595.99,-187 592.99,-191 571.99,-191 568.99,-187 510.01,-187 510.01,-151 595.99,-151 595.99,-187"/>
<text text-anchor="middle" x="553" y="-164.8" font-family="Times,serif" font-size="14.00">MailModule</text>
</g>
<!-- MailModule&#45;&gt;ChangePasswordMailService  -->
<g id="edge1" class="edge">
<title>MailModule&#45;&gt;ChangePasswordMailService </title>
<path fill="none" stroke="black" stroke-dasharray="5,2" d="M596.06,-178C666.1,-178 796.99,-178 796.99,-178 796.99,-178 796.99,-205.97 796.99,-205.97"/>
<polygon fill="black" stroke="black" points="793.49,-205.97 796.99,-215.97 800.49,-205.97 793.49,-205.97"/>
</g>
<!-- MailModule&#45;&gt;ConfirmCreateUserService  -->
<g id="edge2" class="edge">
<title>MailModule&#45;&gt;ConfirmCreateUserService </title>
<path fill="none" stroke="black" stroke-dasharray="5,2" d="M579.03,-187.11C579.03,-187.11 579.03,-205.99 579.03,-205.99"/>
<polygon fill="black" stroke="black" points="575.53,-205.99 579.03,-215.99 582.53,-205.99 575.53,-205.99"/>
</g>
<!-- MailModule&#45;&gt;ResetPasswordMailService  -->
<g id="edge3" class="edge">
<title>MailModule&#45;&gt;ResetPasswordMailService </title>
<path fill="none" stroke="black" stroke-dasharray="5,2" d="M527.17,-187.11C527.17,-187.11 527.17,-205.99 527.17,-205.99"/>
<polygon fill="black" stroke="black" points="523.67,-205.99 527.17,-215.99 530.67,-205.99 523.67,-205.99"/>
</g>
<!-- MailModule&#45;&gt;TwoFactorAuthenticationMailService  -->
<g id="edge4" class="edge">
<title>MailModule&#45;&gt;TwoFactorAuthenticationMailService </title>
<path fill="none" stroke="black" stroke-dasharray="5,2" d="M509.99,-175C449.51,-175 346.63,-175 346.63,-175 346.63,-175 346.63,-205.98 346.63,-205.98"/>
<polygon fill="black" stroke="black" points="343.13,-205.98 346.63,-215.98 350.13,-205.98 343.13,-205.98"/>
</g>
<!-- ChangePasswordMailService -->
<g id="node6" class="node">
<title>ChangePasswordMailService</title>
<ellipse fill="#fdb462" stroke="black" cx="985" cy="-104" rx="124.98" ry="18"/>
<text text-anchor="middle" x="985" y="-99.8" font-family="Times,serif" font-size="14.00">ChangePasswordMailService</text>
</g>
<!-- ChangePasswordMailService&#45;&gt;MailModule -->
<g id="edge5" class="edge">
<title>ChangePasswordMailService&#45;&gt;MailModule</title>
<path fill="none" stroke="black" d="M898.22,-117.15C898.22,-136.15 898.22,-169 898.22,-169 898.22,-169 606.02,-169 606.02,-169"/>
<polygon fill="black" stroke="black" points="606.02,-165.5 596.02,-169 606.02,-172.5 606.02,-165.5"/>
</g>
<!-- ConfirmCreateUserService -->
<g id="node7" class="node">
<title>ConfirmCreateUserService</title>
<ellipse fill="#fdb462" stroke="black" cx="726" cy="-104" rx="116.28" ry="18"/>
<text text-anchor="middle" x="726" y="-99.8" font-family="Times,serif" font-size="14.00">ConfirmCreateUserService</text>
</g>
<!-- ConfirmCreateUserService&#45;&gt;MailModule -->
<g id="edge6" class="edge">
<title>ConfirmCreateUserService&#45;&gt;MailModule</title>
<path fill="none" stroke="black" d="M671.9,-120.2C671.9,-136.74 671.9,-160 671.9,-160 671.9,-160 606.26,-160 606.26,-160"/>
<polygon fill="black" stroke="black" points="606.26,-156.5 596.26,-160 606.26,-163.5 606.26,-156.5"/>
</g>
<!-- ResetPasswordMailService -->
<g id="node8" class="node">
<title>ResetPasswordMailService</title>
<ellipse fill="#fdb462" stroke="black" cx="475" cy="-104" rx="116.88" ry="18"/>
<text text-anchor="middle" x="475" y="-99.8" font-family="Times,serif" font-size="14.00">ResetPasswordMailService</text>
</g>
<!-- ResetPasswordMailService&#45;&gt;MailModule -->
<g id="edge7" class="edge">
<title>ResetPasswordMailService&#45;&gt;MailModule</title>
<path fill="none" stroke="black" d="M550.85,-117.78C550.85,-117.78 550.85,-140.55 550.85,-140.55"/>
<polygon fill="black" stroke="black" points="547.35,-140.55 550.85,-150.55 554.35,-140.55 547.35,-140.55"/>
</g>
<!-- TwoFactorAuthenticationMailService -->
<g id="node9" class="node">
<title>TwoFactorAuthenticationMailService</title>
<ellipse fill="#fdb462" stroke="black" cx="182" cy="-104" rx="157.98" ry="18"/>
<text text-anchor="middle" x="182" y="-99.8" font-family="Times,serif" font-size="14.00">TwoFactorAuthenticationMailService</text>
</g>
<!-- TwoFactorAuthenticationMailService&#45;&gt;MailModule -->
<g id="edge8" class="edge">
<title>TwoFactorAuthenticationMailService&#45;&gt;MailModule</title>
<path fill="none" stroke="black" d="M230.36,-121.38C230.36,-138.79 230.36,-163 230.36,-163 230.36,-163 499.82,-163 499.82,-163"/>
<polygon fill="black" stroke="black" points="499.82,-166.5 509.82,-163 499.82,-159.5 499.82,-166.5"/>
</g>
</g>
</svg>
