<?xml version="1.0" encoding="UTF-8" standalone="no"?>
<!DOCTYPE svg PUBLIC "-//W3C//DTD SVG 1.1//EN"
 "http://www.w3.org/Graphics/SVG/1.1/DTD/svg11.dtd">
<!-- Generated by graphviz version 2.47.0 (20210316.0004)
 -->
<!-- Title: dependencies Pages: 1 -->
<svg width="1750pt" height="211pt"
 viewBox="0.00 0.00 1750.00 211.00" xmlns="http://www.w3.org/2000/svg" xmlns:xlink="http://www.w3.org/1999/xlink">
<g id="graph0" class="graph" transform="scale(1 1) rotate(0) translate(4 207)">
<title>dependencies</title>
<polygon fill="white" stroke="transparent" points="-4,4 -4,-207 1746,-207 1746,4 -4,4"/>
<text text-anchor="start" x="850.01" y="-42.4" font-family="Times-12" font-weight="bold" font-size="14.00">Legend</text>
<polygon fill="#ffffb3" stroke="transparent" points="637,-10 637,-30 657,-30 657,-10 637,-10"/>
<text text-anchor="start" x="660.63" y="-15.4" font-family="Times-12" font-size="14.00"> &#160;Declarations</text>
<polygon fill="#8dd3c7" stroke="transparent" points="750,-10 750,-30 770,-30 770,-10 750,-10"/>
<text text-anchor="start" x="773.73" y="-15.4" font-family="Times-12" font-size="14.00"> &#160;Module</text>
<polygon fill="#80b1d3" stroke="transparent" points="836,-10 836,-30 856,-30 856,-10 836,-10"/>
<text text-anchor="start" x="859.78" y="-15.4" font-family="Times-12" font-size="14.00"> &#160;Bootstrap</text>
<polygon fill="#fdb462" stroke="transparent" points="933,-10 933,-30 953,-30 953,-10 933,-10"/>
<text text-anchor="start" x="956.67" y="-15.4" font-family="Times-12" font-size="14.00"> &#160;Providers</text>
<polygon fill="#fb8072" stroke="transparent" points="1029,-10 1029,-30 1049,-30 1049,-10 1029,-10"/>
<text text-anchor="start" x="1052.73" y="-15.4" font-family="Times-12" font-size="14.00"> &#160;Exports</text>
<g id="clust1" class="cluster">
<title>cluster_AppModule</title>
<polygon fill="none" stroke="black" stroke-dasharray="1,5" points="8,-70 8,-195 1734,-195 1734,-70 8,-70"/>
</g>
<g id="clust3" class="cluster">
<title>cluster_AppModule_imports</title>
<polygon fill="none" stroke="black" points="154,-78 154,-130 1726,-130 1726,-78 154,-78"/>
</g>
<g id="clust6" class="cluster">
<title>cluster_AppModule_providers</title>
<polygon fill="none" stroke="black" points="16,-78 16,-130 146,-130 146,-78 16,-78"/>
</g>
<!-- AccessModulesModule -->
<g id="node1" class="node">
<title>AccessModulesModule</title>
<polygon fill="#8dd3c7" stroke="black" points="1718.18,-122 1715.18,-126 1694.18,-126 1691.18,-122 1569.82,-122 1569.82,-86 1718.18,-86 1718.18,-122"/>
<text text-anchor="middle" x="1644" y="-99.8" font-family="Times,serif" font-size="14.00">AccessModulesModule</text>
</g>
<!-- AppModule -->
<g id="node14" class="node">
<title>AppModule</title>
<polygon fill="#8dd3c7" stroke="black" points="873.66,-187 870.66,-191 849.66,-191 846.66,-187 790.34,-187 790.34,-151 873.66,-151 873.66,-187"/>
<text text-anchor="middle" x="832" y="-164.8" font-family="Times,serif" font-size="14.00">AppModule</text>
</g>
<!-- AccessModulesModule&#45;&gt;AppModule -->
<g id="edge1" class="edge">
<title>AccessModulesModule&#45;&gt;AppModule</title>
<path fill="none" stroke="black" d="M1644,-122.09C1644,-145.13 1644,-182 1644,-182 1644,-182 883.66,-182 883.66,-182"/>
<polygon fill="black" stroke="black" points="883.66,-178.5 873.66,-182 883.66,-185.5 883.66,-178.5"/>
</g>
<!-- AuthModule -->
<g id="node2" class="node">
<title>AuthModule</title>
<polygon fill="#8dd3c7" stroke="black" points="1551.55,-122 1548.55,-126 1527.55,-126 1524.55,-122 1464.45,-122 1464.45,-86 1551.55,-86 1551.55,-122"/>
<text text-anchor="middle" x="1508" y="-99.8" font-family="Times,serif" font-size="14.00">AuthModule</text>
</g>
<!-- AuthModule&#45;&gt;AppModule -->
<g id="edge2" class="edge">
<title>AuthModule&#45;&gt;AppModule</title>
<path fill="none" stroke="black" d="M1508,-122.04C1508,-143.66 1508,-177 1508,-177 1508,-177 883.78,-177 883.78,-177"/>
<polygon fill="black" stroke="black" points="883.78,-173.5 873.78,-177 883.78,-180.5 883.78,-173.5"/>
</g>
<!-- CategoryModule -->
<g id="node3" class="node">
<title>CategoryModule</title>
<polygon fill="#8dd3c7" stroke="black" points="1446.37,-122 1443.37,-126 1422.37,-126 1419.37,-122 1335.63,-122 1335.63,-86 1446.37,-86 1446.37,-122"/>
<text text-anchor="middle" x="1391" y="-99.8" font-family="Times,serif" font-size="14.00">CategoryModule</text>
</g>
<!-- CategoryModule&#45;&gt;AppModule -->
<g id="edge3" class="edge">
<title>CategoryModule&#45;&gt;AppModule</title>
<path fill="none" stroke="black" d="M1391,-122.22C1391,-142.37 1391,-172 1391,-172 1391,-172 884.02,-172 884.02,-172"/>
<polygon fill="black" stroke="black" points="884.02,-168.5 874.02,-172 884.02,-175.5 884.02,-168.5"/>
</g>
<!-- CommonModule -->
<g id="node4" class="node">
<title>CommonModule</title>
<polygon fill="#8dd3c7" stroke="black" points="1317.67,-122 1314.67,-126 1293.67,-126 1290.67,-122 1206.33,-122 1206.33,-86 1317.67,-86 1317.67,-122"/>
<text text-anchor="middle" x="1262" y="-99.8" font-family="Times,serif" font-size="14.00">CommonModule</text>
</g>
<!-- CommonModule&#45;&gt;AppModule -->
<g id="edge4" class="edge">
<title>CommonModule&#45;&gt;AppModule</title>
<path fill="none" stroke="black" d="M1262,-122.22C1262,-140.83 1262,-167 1262,-167 1262,-167 884.01,-167 884.01,-167"/>
<polygon fill="black" stroke="black" points="884.01,-163.5 874.01,-167 884.01,-170.5 884.01,-163.5"/>
</g>
<!-- DatabaseModule -->
<g id="node5" class="node">
<title>DatabaseModule</title>
<polygon fill="#8dd3c7" stroke="black" points="1188.35,-122 1185.35,-126 1164.35,-126 1161.35,-122 1077.65,-122 1077.65,-86 1188.35,-86 1188.35,-122"/>
<text text-anchor="middle" x="1133" y="-99.8" font-family="Times,serif" font-size="14.00">DatabaseModule</text>
</g>
<!-- DatabaseModule&#45;&gt;AppModule -->
<g id="edge5" class="edge">
<title>DatabaseModule&#45;&gt;AppModule</title>
<path fill="none" stroke="black" d="M1133,-122.03C1133,-139.06 1133,-162 1133,-162 1133,-162 883.85,-162 883.85,-162"/>
<polygon fill="black" stroke="black" points="883.85,-158.5 873.85,-162 883.85,-165.5 883.85,-158.5"/>
</g>
<!-- KeycloakModule -->
<g id="node6" class="node">
<title>KeycloakModule</title>
<polygon fill="#8dd3c7" stroke="black" points="1059.69,-122 1056.69,-126 1035.69,-126 1032.69,-122 946.31,-122 946.31,-86 1059.69,-86 1059.69,-122"/>
<text text-anchor="middle" x="1003" y="-99.8" font-family="Times,serif" font-size="14.00">KeycloakModule</text>
</g>
<!-- KeycloakModule&#45;&gt;AppModule -->
<g id="edge6" class="edge">
<title>KeycloakModule&#45;&gt;AppModule</title>
<path fill="none" stroke="black" d="M1003,-122.24C1003,-137.57 1003,-157 1003,-157 1003,-157 883.83,-157 883.83,-157"/>
<polygon fill="black" stroke="black" points="883.83,-153.5 873.83,-157 883.83,-160.5 883.83,-153.5"/>
</g>
<!-- MailModule -->
<g id="node7" class="node">
<title>MailModule</title>
<polygon fill="#8dd3c7" stroke="black" points="927.99,-122 924.99,-126 903.99,-126 900.99,-122 842.01,-122 842.01,-86 927.99,-86 927.99,-122"/>
<text text-anchor="middle" x="885" y="-99.8" font-family="Times,serif" font-size="14.00">MailModule</text>
</g>
<!-- MailModule&#45;&gt;AppModule -->
<g id="edge7" class="edge">
<title>MailModule&#45;&gt;AppModule</title>
<path fill="none" stroke="black" d="M857.92,-122.11C857.92,-122.11 857.92,-140.99 857.92,-140.99"/>
<polygon fill="black" stroke="black" points="854.42,-140.99 857.92,-150.99 861.42,-140.99 854.42,-140.99"/>
</g>
<!-- PlansModule -->
<g id="node8" class="node">
<title>PlansModule</title>
<polygon fill="#8dd3c7" stroke="black" points="823.88,-122 820.88,-126 799.88,-126 796.88,-122 734.12,-122 734.12,-86 823.88,-86 823.88,-122"/>
<text text-anchor="middle" x="779" y="-99.8" font-family="Times,serif" font-size="14.00">PlansModule</text>
</g>
<!-- PlansModule&#45;&gt;AppModule -->
<g id="edge8" class="edge">
<title>PlansModule&#45;&gt;AppModule</title>
<path fill="none" stroke="black" d="M807.06,-122.11C807.06,-122.11 807.06,-140.99 807.06,-140.99"/>
<polygon fill="black" stroke="black" points="803.56,-140.99 807.06,-150.99 810.56,-140.99 803.56,-140.99"/>
</g>
<!-- ProductModule -->
<g id="node9" class="node">
<title>ProductModule</title>
<polygon fill="#8dd3c7" stroke="black" points="716.6,-122 713.6,-126 692.6,-126 689.6,-122 613.4,-122 613.4,-86 716.6,-86 716.6,-122"/>
<text text-anchor="middle" x="665" y="-99.8" font-family="Times,serif" font-size="14.00">ProductModule</text>
</g>
<!-- ProductModule&#45;&gt;AppModule -->
<g id="edge9" class="edge">
<title>ProductModule&#45;&gt;AppModule</title>
<path fill="none" stroke="black" d="M665,-122.24C665,-137.57 665,-157 665,-157 665,-157 780.29,-157 780.29,-157"/>
<polygon fill="black" stroke="black" points="780.29,-160.5 790.29,-157 780.29,-153.5 780.29,-160.5"/>
</g>
<!-- RolesModule -->
<g id="node10" class="node">
<title>RolesModule</title>
<polygon fill="#8dd3c7" stroke="black" points="595.94,-122 592.94,-126 571.94,-126 568.94,-122 504.06,-122 504.06,-86 595.94,-86 595.94,-122"/>
<text text-anchor="middle" x="550" y="-99.8" font-family="Times,serif" font-size="14.00">RolesModule</text>
</g>
<!-- RolesModule&#45;&gt;AppModule -->
<g id="edge10" class="edge">
<title>RolesModule&#45;&gt;AppModule</title>
<path fill="none" stroke="black" d="M550,-122.03C550,-139.06 550,-162 550,-162 550,-162 780.09,-162 780.09,-162"/>
<polygon fill="black" stroke="black" points="780.09,-165.5 790.09,-162 780.09,-158.5 780.09,-165.5"/>
</g>
<!-- SitesModule -->
<g id="node11" class="node">
<title>SitesModule</title>
<polygon fill="#8dd3c7" stroke="black" points="486.27,-122 483.27,-126 462.27,-126 459.27,-122 399.73,-122 399.73,-86 486.27,-86 486.27,-122"/>
<text text-anchor="middle" x="443" y="-99.8" font-family="Times,serif" font-size="14.00">SitesModule</text>
</g>
<!-- SitesModule&#45;&gt;AppModule -->
<g id="edge11" class="edge">
<title>SitesModule&#45;&gt;AppModule</title>
<path fill="none" stroke="black" d="M443,-122.22C443,-140.83 443,-167 443,-167 443,-167 780,-167 780,-167"/>
<polygon fill="black" stroke="black" points="780,-170.5 790,-167 780,-163.5 780,-170.5"/>
</g>
<!-- UsersModule -->
<g id="node12" class="node">
<title>UsersModule</title>
<polygon fill="#8dd3c7" stroke="black" points="381.92,-122 378.92,-126 357.92,-126 354.92,-122 290.08,-122 290.08,-86 381.92,-86 381.92,-122"/>
<text text-anchor="middle" x="336" y="-99.8" font-family="Times,serif" font-size="14.00">UsersModule</text>
</g>
<!-- UsersModule&#45;&gt;AppModule -->
<g id="edge12" class="edge">
<title>UsersModule&#45;&gt;AppModule</title>
<path fill="none" stroke="black" d="M336,-122.22C336,-142.37 336,-172 336,-172 336,-172 780.14,-172 780.14,-172"/>
<polygon fill="black" stroke="black" points="780.14,-175.5 790.14,-172 780.14,-168.5 780.14,-175.5"/>
</g>
<!-- UsertypeModule -->
<g id="node13" class="node">
<title>UsertypeModule</title>
<polygon fill="#8dd3c7" stroke="black" points="272.08,-122 269.08,-126 248.08,-126 245.08,-122 161.92,-122 161.92,-86 272.08,-86 272.08,-122"/>
<text text-anchor="middle" x="217" y="-99.8" font-family="Times,serif" font-size="14.00">UsertypeModule</text>
</g>
<!-- UsertypeModule&#45;&gt;AppModule -->
<g id="edge13" class="edge">
<title>UsertypeModule&#45;&gt;AppModule</title>
<path fill="none" stroke="black" d="M217,-122.04C217,-143.66 217,-177 217,-177 217,-177 780.21,-177 780.21,-177"/>
<polygon fill="black" stroke="black" points="780.21,-180.5 790.21,-177 780.21,-173.5 780.21,-180.5"/>
</g>
<!-- AppService -->
<g id="node15" class="node">
<title>AppService</title>
<ellipse fill="#fdb462" stroke="black" cx="81" cy="-104" rx="56.74" ry="18"/>
<text text-anchor="middle" x="81" y="-99.8" font-family="Times,serif" font-size="14.00">AppService</text>
</g>
<!-- AppService&#45;&gt;AppModule -->
<g id="edge14" class="edge">
<title>AppService&#45;&gt;AppModule</title>
<path fill="none" stroke="black" d="M81,-122.09C81,-145.13 81,-182 81,-182 81,-182 780.28,-182 780.28,-182"/>
<polygon fill="black" stroke="black" points="780.28,-185.5 790.28,-182 780.28,-178.5 780.28,-185.5"/>
</g>
</g>
</svg>
