<?xml version="1.0" encoding="UTF-8" standalone="no"?>
<!DOCTYPE svg PUBLIC "-//W3C//DTD SVG 1.1//EN"
 "http://www.w3.org/Graphics/SVG/1.1/DTD/svg11.dtd">
<!-- Generated by graphviz version 2.47.0 (20210316.0004)
 -->
<!-- Title: dependencies Pages: 1 -->
<svg width="4083pt" height="306pt"
 viewBox="0.00 0.00 4083.00 306.00" xmlns="http://www.w3.org/2000/svg" xmlns:xlink="http://www.w3.org/1999/xlink">
<g id="graph0" class="graph" transform="scale(1 1) rotate(0) translate(4 302)">
<title>dependencies</title>
<polygon fill="white" stroke="transparent" points="-4,4 -4,-302 4079,-302 4079,4 -4,4"/>
<text text-anchor="start" x="2016.51" y="-42.4" font-family="Times-12" font-weight="bold" font-size="14.00">Legend</text>
<polygon fill="#ffffb3" stroke="transparent" points="1803.5,-10 1803.5,-30 1823.5,-30 1823.5,-10 1803.5,-10"/>
<text text-anchor="start" x="1827.13" y="-15.4" font-family="Times-12" font-size="14.00"> &#160;Declarations</text>
<polygon fill="#8dd3c7" stroke="transparent" points="1916.5,-10 1916.5,-30 1936.5,-30 1936.5,-10 1916.5,-10"/>
<text text-anchor="start" x="1940.23" y="-15.4" font-family="Times-12" font-size="14.00"> &#160;Module</text>
<polygon fill="#80b1d3" stroke="transparent" points="2002.5,-10 2002.5,-30 2022.5,-30 2022.5,-10 2002.5,-10"/>
<text text-anchor="start" x="2026.28" y="-15.4" font-family="Times-12" font-size="14.00"> &#160;Bootstrap</text>
<polygon fill="#fdb462" stroke="transparent" points="2099.5,-10 2099.5,-30 2119.5,-30 2119.5,-10 2099.5,-10"/>
<text text-anchor="start" x="2123.17" y="-15.4" font-family="Times-12" font-size="14.00"> &#160;Providers</text>
<polygon fill="#fb8072" stroke="transparent" points="2195.5,-10 2195.5,-30 2215.5,-30 2215.5,-10 2195.5,-10"/>
<text text-anchor="start" x="2219.23" y="-15.4" font-family="Times-12" font-size="14.00"> &#160;Exports</text>
<g id="clust1" class="cluster">
<title>cluster_AccessModulesModule</title>
<polygon fill="none" stroke="black" stroke-dasharray="1,5" points="8,-70 8,-206 242,-206 242,-70 8,-70"/>
</g>
<g id="clust6" class="cluster">
<title>cluster_AccessModulesModule_providers</title>
<polygon fill="none" stroke="black" points="16,-78 16,-130 234,-130 234,-78 16,-78"/>
</g>
<g id="clust7" class="cluster">
<title>cluster_AppModule</title>
<polygon fill="none" stroke="black" stroke-dasharray="1,5" points="674,-146 674,-290 2102,-290 2102,-146 674,-146"/>
</g>
<g id="clust9" class="cluster">
<title>cluster_AppModule_imports</title>
<polygon fill="none" stroke="black" points="820,-154 820,-282 2094,-282 2094,-154 820,-154"/>
</g>
<g id="clust12" class="cluster">
<title>cluster_AppModule_providers</title>
<polygon fill="none" stroke="black" points="682,-154 682,-206 812,-206 812,-154 682,-154"/>
</g>
<g id="clust13" class="cluster">
<title>cluster_AuthModule</title>
<polygon fill="none" stroke="black" stroke-dasharray="1,5" points="250,-70 250,-138 804,-138 804,-70 250,-70"/>
</g>
<g id="clust16" class="cluster">
<title>cluster_AuthModule_exports</title>
<polygon fill="none" stroke="black" points="626,-78 626,-130 796,-130 796,-78 626,-78"/>
</g>
<g id="clust18" class="cluster">
<title>cluster_AuthModule_providers</title>
<polygon fill="none" stroke="black" points="258,-78 258,-130 618,-130 618,-78 258,-78"/>
</g>
<g id="clust19" class="cluster">
<title>cluster_CategoryModule</title>
<polygon fill="none" stroke="black" stroke-dasharray="1,5" points="812,-70 812,-138 994,-138 994,-70 812,-70"/>
</g>
<g id="clust24" class="cluster">
<title>cluster_CategoryModule_providers</title>
<polygon fill="none" stroke="black" points="820,-78 820,-130 986,-130 986,-78 820,-78"/>
</g>
<g id="clust37" class="cluster">
<title>cluster_KeycloakModule</title>
<polygon fill="none" stroke="black" stroke-dasharray="1,5" points="480,-146 480,-214 666,-214 666,-146 480,-146"/>
</g>
<g id="clust42" class="cluster">
<title>cluster_KeycloakModule_providers</title>
<polygon fill="none" stroke="black" points="488,-154 488,-206 658,-206 658,-154 488,-154"/>
</g>
<g id="clust43" class="cluster">
<title>cluster_MailModule</title>
<polygon fill="none" stroke="black" stroke-dasharray="1,5" points="2110,-222 2110,-290 4067,-290 4067,-222 2110,-222"/>
</g>
<g id="clust46" class="cluster">
<title>cluster_MailModule_exports</title>
<polygon fill="none" stroke="black" points="3228,-230 3228,-282 4059,-282 4059,-230 3228,-230"/>
</g>
<g id="clust48" class="cluster">
<title>cluster_MailModule_providers</title>
<polygon fill="none" stroke="black" points="2118,-230 2118,-282 3220,-282 3220,-230 2118,-230"/>
</g>
<g id="clust49" class="cluster">
<title>cluster_PlansModule</title>
<polygon fill="none" stroke="black" stroke-dasharray="1,5" points="1002,-70 1002,-138 1156,-138 1156,-70 1002,-70"/>
</g>
<g id="clust54" class="cluster">
<title>cluster_PlansModule_providers</title>
<polygon fill="none" stroke="black" points="1010,-78 1010,-130 1148,-130 1148,-78 1010,-78"/>
</g>
<g id="clust55" class="cluster">
<title>cluster_ProductModule</title>
<polygon fill="none" stroke="black" stroke-dasharray="1,5" points="1164,-70 1164,-138 1336,-138 1336,-70 1164,-70"/>
</g>
<g id="clust60" class="cluster">
<title>cluster_ProductModule_providers</title>
<polygon fill="none" stroke="black" points="1172,-78 1172,-130 1328,-130 1328,-78 1172,-78"/>
</g>
<g id="clust61" class="cluster">
<title>cluster_RolesModule</title>
<polygon fill="none" stroke="black" stroke-dasharray="1,5" points="1344,-70 1344,-138 1500,-138 1500,-70 1344,-70"/>
</g>
<g id="clust66" class="cluster">
<title>cluster_RolesModule_providers</title>
<polygon fill="none" stroke="black" points="1352,-78 1352,-130 1492,-130 1492,-78 1352,-78"/>
</g>
<g id="clust67" class="cluster">
<title>cluster_SitesModule</title>
<polygon fill="none" stroke="black" stroke-dasharray="1,5" points="1508,-70 1508,-138 1658,-138 1658,-70 1508,-70"/>
</g>
<g id="clust72" class="cluster">
<title>cluster_SitesModule_providers</title>
<polygon fill="none" stroke="black" points="1516,-78 1516,-130 1650,-130 1650,-78 1516,-78"/>
</g>
<g id="clust73" class="cluster">
<title>cluster_TemplateManagerModule</title>
<polygon fill="none" stroke="black" stroke-dasharray="1,5" points="2996,-70 2996,-206 3250,-206 3250,-70 2996,-70"/>
</g>
<g id="clust78" class="cluster">
<title>cluster_TemplateManagerModule_providers</title>
<polygon fill="none" stroke="black" points="3004,-78 3004,-130 3242,-130 3242,-78 3004,-78"/>
</g>
<g id="clust79" class="cluster">
<title>cluster_UsersModule</title>
<polygon fill="none" stroke="black" stroke-dasharray="1,5" points="1666,-70 1666,-138 2009,-138 2009,-70 1666,-70"/>
</g>
<g id="clust84" class="cluster">
<title>cluster_UsersModule_providers</title>
<polygon fill="none" stroke="black" points="1674,-78 1674,-130 2001,-130 2001,-78 1674,-78"/>
</g>
<g id="clust85" class="cluster">
<title>cluster_UsertypeModule</title>
<polygon fill="none" stroke="black" stroke-dasharray="1,5" points="2017,-70 2017,-138 2199,-138 2199,-70 2017,-70"/>
</g>
<g id="clust90" class="cluster">
<title>cluster_UsertypeModule_providers</title>
<polygon fill="none" stroke="black" points="2025,-78 2025,-130 2191,-130 2191,-78 2025,-78"/>
</g>
<!-- AccessModulesService -->
<g id="node1" class="node">
<title>AccessModulesService</title>
<ellipse fill="#fdb462" stroke="black" cx="125" cy="-104" rx="101.26" ry="18"/>
<text text-anchor="middle" x="125" y="-99.8" font-family="Times,serif" font-size="14.00">AccessModulesService</text>
</g>
<!-- AccessModulesModule -->
<g id="node2" class="node">
<title>AccessModulesModule</title>
<polygon fill="#8dd3c7" stroke="black" points="216.18,-198 213.18,-202 192.18,-202 189.18,-198 67.82,-198 67.82,-162 216.18,-162 216.18,-198"/>
<text text-anchor="middle" x="142" y="-175.8" font-family="Times,serif" font-size="14.00">AccessModulesModule</text>
</g>
<!-- AccessModulesService&#45;&gt;AccessModulesModule -->
<g id="edge1" class="edge">
<title>AccessModulesService&#45;&gt;AccessModulesModule</title>
<path fill="none" stroke="black" d="M142,-122.01C142,-122.01 142,-151.85 142,-151.85"/>
<polygon fill="black" stroke="black" points="138.5,-151.85 142,-161.85 145.5,-151.85 138.5,-151.85"/>
</g>
<!-- AppModule -->
<g id="node15" class="node">
<title>AppModule</title>
<polygon fill="#8dd3c7" stroke="black" points="811.66,-274 808.66,-278 787.66,-278 784.66,-274 728.34,-274 728.34,-238 811.66,-238 811.66,-274"/>
<text text-anchor="middle" x="770" y="-251.8" font-family="Times,serif" font-size="14.00">AppModule</text>
</g>
<!-- AccessModulesModule&#45;&gt;AppModule -->
<g id="edge2" class="edge">
<title>AccessModulesModule&#45;&gt;AppModule</title>
<path fill="none" stroke="black" d="M142,-198.01C142,-220.49 142,-256 142,-256 142,-256 718.31,-256 718.31,-256"/>
<polygon fill="black" stroke="black" points="718.31,-259.5 728.31,-256 718.31,-252.5 718.31,-259.5"/>
</g>
<!-- AuthModule -->
<g id="node3" class="node">
<title>AuthModule</title>
<polygon fill="#8dd3c7" stroke="black" points="915.55,-198 912.55,-202 891.55,-202 888.55,-198 828.45,-198 828.45,-162 915.55,-162 915.55,-198"/>
<text text-anchor="middle" x="872" y="-175.8" font-family="Times,serif" font-size="14.00">AuthModule</text>
</g>
<!-- AuthModule&#45;&gt;AppModule -->
<g id="edge3" class="edge">
<title>AuthModule&#45;&gt;AppModule</title>
<path fill="none" stroke="black" d="M828.42,-186C816.95,-186 807.72,-186 807.72,-186 807.72,-186 807.72,-227.97 807.72,-227.97"/>
<polygon fill="black" stroke="black" points="804.22,-227.97 807.72,-237.97 811.22,-227.97 804.22,-227.97"/>
</g>
<!-- KeycloakConfigService  -->
<g id="node17" class="node">
<title>KeycloakConfigService </title>
<polygon fill="#fb8072" stroke="black" points="788.01,-122 633.99,-122 633.99,-86 788.01,-86 788.01,-122"/>
<text text-anchor="middle" x="711" y="-99.8" font-family="Times,serif" font-size="14.00">KeycloakConfigService </text>
</g>
<!-- AuthModule&#45;&gt;KeycloakConfigService  -->
<g id="edge16" class="edge">
<title>AuthModule&#45;&gt;KeycloakConfigService </title>
<path fill="none" stroke="black" stroke-dasharray="5,2" d="M828.35,-174C823.19,-174 819.72,-174 819.72,-174 819.72,-174 819.72,-104 819.72,-104 819.72,-104 798.27,-104 798.27,-104"/>
<polygon fill="black" stroke="black" points="798.27,-100.5 788.27,-104 798.27,-107.5 798.27,-100.5"/>
</g>
<!-- CategoryModule -->
<g id="node4" class="node">
<title>CategoryModule</title>
<polygon fill="#8dd3c7" stroke="black" points="1044.37,-198 1041.37,-202 1020.37,-202 1017.37,-198 933.63,-198 933.63,-162 1044.37,-162 1044.37,-198"/>
<text text-anchor="middle" x="989" y="-175.8" font-family="Times,serif" font-size="14.00">CategoryModule</text>
</g>
<!-- CategoryModule&#45;&gt;AppModule -->
<g id="edge4" class="edge">
<title>CategoryModule&#45;&gt;AppModule</title>
<path fill="none" stroke="black" d="M938.08,-198.03C938.08,-214.4 938.08,-236 938.08,-236 938.08,-236 809.78,-236 809.78,-236 809.78,-236 809.78,-236.18 809.78,-236.18"/>
<polygon fill="black" stroke="black" points="806.28,-227.85 809.78,-237.85 813.28,-227.85 806.28,-227.85"/>
</g>
<!-- CommonModule -->
<g id="node5" class="node">
<title>CommonModule</title>
<polygon fill="#8dd3c7" stroke="black" points="1981.67,-198 1978.67,-202 1957.67,-202 1954.67,-198 1870.33,-198 1870.33,-162 1981.67,-162 1981.67,-198"/>
<text text-anchor="middle" x="1926" y="-175.8" font-family="Times,serif" font-size="14.00">CommonModule</text>
</g>
<!-- KeycloakModule -->
<g id="node7" class="node">
<title>KeycloakModule</title>
<polygon fill="#8dd3c7" stroke="black" points="942.69,-274 939.69,-278 918.69,-278 915.69,-274 829.31,-274 829.31,-238 942.69,-238 942.69,-274"/>
<text text-anchor="middle" x="886" y="-251.8" font-family="Times,serif" font-size="14.00">KeycloakModule</text>
</g>
<!-- CommonModule&#45;&gt;KeycloakModule -->
<g id="edge20" class="edge">
<title>CommonModule&#45;&gt;KeycloakModule</title>
<path fill="none" stroke="black" d="M1944.61,-198.01C1944.61,-220.49 1944.61,-256 1944.61,-256 1944.61,-256 952.92,-256 952.92,-256"/>
<polygon fill="black" stroke="black" points="952.92,-252.5 942.92,-256 952.92,-259.5 952.92,-252.5"/>
</g>
<!-- CommonModule&#45;&gt;AppModule -->
<g id="edge5" class="edge">
<title>CommonModule&#45;&gt;AppModule</title>
<path fill="none" stroke="black" d="M1907.39,-198.15C1907.39,-211.74 1907.39,-228 1907.39,-228 1907.39,-228 788.53,-228 788.53,-228 788.53,-228 788.53,-228.98 788.53,-228.98"/>
<polygon fill="black" stroke="black" points="785.03,-227.79 788.53,-237.79 792.03,-227.79 785.03,-227.79"/>
</g>
<!-- DatabaseModule -->
<g id="node6" class="node">
<title>DatabaseModule</title>
<polygon fill="#8dd3c7" stroke="black" points="1852.35,-198 1849.35,-202 1828.35,-202 1825.35,-198 1741.65,-198 1741.65,-162 1852.35,-162 1852.35,-198"/>
<text text-anchor="middle" x="1797" y="-175.8" font-family="Times,serif" font-size="14.00">DatabaseModule</text>
</g>
<!-- DatabaseModule&#45;&gt;AppModule -->
<g id="edge6" class="edge">
<title>DatabaseModule&#45;&gt;AppModule</title>
<path fill="none" stroke="black" d="M1797,-198.04C1797,-210.56 1797,-225 1797,-225 1797,-225 780.99,-225 780.99,-225 780.99,-225 780.99,-227.97 780.99,-227.97"/>
<polygon fill="black" stroke="black" points="777.49,-227.97 780.99,-237.97 784.49,-227.97 777.49,-227.97"/>
</g>
<!-- KeycloakModule&#45;&gt;AppModule -->
<g id="edge7" class="edge">
<title>KeycloakModule&#45;&gt;AppModule</title>
<path fill="none" stroke="black" d="M829.36,-256C829.36,-256 821.95,-256 821.95,-256"/>
<polygon fill="black" stroke="black" points="821.95,-252.5 811.95,-256 821.95,-259.5 821.95,-252.5"/>
</g>
<!-- MailModule -->
<g id="node8" class="node">
<title>MailModule</title>
<polygon fill="#8dd3c7" stroke="black" points="2085.99,-198 2082.99,-202 2061.99,-202 2058.99,-198 2000.01,-198 2000.01,-162 2085.99,-162 2085.99,-198"/>
<text text-anchor="middle" x="2043" y="-175.8" font-family="Times,serif" font-size="14.00">MailModule</text>
</g>
<!-- MailModule&#45;&gt;AppModule -->
<g id="edge8" class="edge">
<title>MailModule&#45;&gt;AppModule</title>
<path fill="none" stroke="black" d="M2014.34,-198.05C2014.34,-212.37 2014.34,-230 2014.34,-230 2014.34,-230 796.08,-230 796.08,-230 796.08,-230 796.08,-230.79 796.08,-230.79"/>
<polygon fill="black" stroke="black" points="792.58,-227.94 796.08,-237.94 799.58,-227.94 792.58,-227.94"/>
</g>
<!-- ChangePasswordMailService  -->
<g id="node22" class="node">
<title>ChangePasswordMailService </title>
<polygon fill="#fb8072" stroke="black" points="4051.34,-274 3866.66,-274 3866.66,-238 4051.34,-238 4051.34,-274"/>
<text text-anchor="middle" x="3959" y="-251.8" font-family="Times,serif" font-size="14.00">ChangePasswordMailService </text>
</g>
<!-- MailModule&#45;&gt;ChangePasswordMailService  -->
<g id="edge22" class="edge">
<title>MailModule&#45;&gt;ChangePasswordMailService </title>
<path fill="none" stroke="black" stroke-dasharray="5,2" d="M2071.66,-198.08C2071.66,-199.85 2071.66,-201 2071.66,-201 2071.66,-201 3959,-201 3959,-201 3959,-201 3959,-227.99 3959,-227.99"/>
<polygon fill="black" stroke="black" points="3955.5,-227.99 3959,-237.99 3962.5,-227.99 3955.5,-227.99"/>
</g>
<!-- ConfirmCreateUserService  -->
<g id="node23" class="node">
<title>ConfirmCreateUserService </title>
<polygon fill="#fb8072" stroke="black" points="3848.87,-274 3677.13,-274 3677.13,-238 3848.87,-238 3848.87,-274"/>
<text text-anchor="middle" x="3763" y="-251.8" font-family="Times,serif" font-size="14.00">ConfirmCreateUserService </text>
</g>
<!-- MailModule&#45;&gt;ConfirmCreateUserService  -->
<g id="edge23" class="edge">
<title>MailModule&#45;&gt;ConfirmCreateUserService </title>
<path fill="none" stroke="black" stroke-dasharray="5,2" d="M2057.33,-198.19C2057.33,-201.54 2057.33,-204 2057.33,-204 2057.33,-204 3763,-204 3763,-204 3763,-204 3763,-227.81 3763,-227.81"/>
<polygon fill="black" stroke="black" points="3759.5,-227.81 3763,-237.81 3766.5,-227.81 3759.5,-227.81"/>
</g>
<!-- ResetPasswordMailService  -->
<g id="node24" class="node">
<title>ResetPasswordMailService </title>
<polygon fill="#fb8072" stroke="black" points="3659.17,-274 3486.83,-274 3486.83,-238 3659.17,-238 3659.17,-274"/>
<text text-anchor="middle" x="3573" y="-251.8" font-family="Times,serif" font-size="14.00">ResetPasswordMailService </text>
</g>
<!-- MailModule&#45;&gt;ResetPasswordMailService  -->
<g id="edge24" class="edge">
<title>MailModule&#45;&gt;ResetPasswordMailService </title>
<path fill="none" stroke="black" stroke-dasharray="5,2" d="M2043,-198.06C2043,-202.49 2043,-206 2043,-206 2043,-206 3573,-206 3573,-206 3573,-206 3573,-227.95 3573,-227.95"/>
<polygon fill="black" stroke="black" points="3569.5,-227.95 3573,-237.95 3576.5,-227.95 3569.5,-227.95"/>
</g>
<!-- TwoFactorAuthenticationMailService  -->
<g id="node25" class="node">
<title>TwoFactorAuthenticationMailService </title>
<polygon fill="#fb8072" stroke="black" points="3468.04,-274 3235.96,-274 3235.96,-238 3468.04,-238 3468.04,-274"/>
<text text-anchor="middle" x="3352" y="-251.8" font-family="Times,serif" font-size="14.00">TwoFactorAuthenticationMailService </text>
</g>
<!-- MailModule&#45;&gt;TwoFactorAuthenticationMailService  -->
<g id="edge25" class="edge">
<title>MailModule&#45;&gt;TwoFactorAuthenticationMailService </title>
<path fill="none" stroke="black" stroke-dasharray="5,2" d="M2028.67,-198.2C2028.67,-204.03 2028.67,-209 2028.67,-209 2028.67,-209 3352,-209 3352,-209 3352,-209 3352,-227.96 3352,-227.96"/>
<polygon fill="black" stroke="black" points="3348.5,-227.96 3352,-237.96 3355.5,-227.96 3348.5,-227.96"/>
</g>
<!-- PlansModule -->
<g id="node9" class="node">
<title>PlansModule</title>
<polygon fill="#8dd3c7" stroke="black" points="1151.88,-198 1148.88,-202 1127.88,-202 1124.88,-198 1062.12,-198 1062.12,-162 1151.88,-162 1151.88,-198"/>
<text text-anchor="middle" x="1107" y="-175.8" font-family="Times,serif" font-size="14.00">PlansModule</text>
</g>
<!-- PlansModule&#45;&gt;AppModule -->
<g id="edge9" class="edge">
<title>PlansModule&#45;&gt;AppModule</title>
<path fill="none" stroke="black" d="M1107,-198.24C1107,-205.43 1107,-212 1107,-212 1107,-212 743.26,-212 743.26,-212 743.26,-212 743.26,-227.85 743.26,-227.85"/>
<polygon fill="black" stroke="black" points="739.76,-227.85 743.26,-237.85 746.76,-227.85 739.76,-227.85"/>
</g>
<!-- ProductModule -->
<g id="node10" class="node">
<title>ProductModule</title>
<polygon fill="#8dd3c7" stroke="black" points="1272.6,-198 1269.6,-202 1248.6,-202 1245.6,-198 1169.4,-198 1169.4,-162 1272.6,-162 1272.6,-198"/>
<text text-anchor="middle" x="1221" y="-175.8" font-family="Times,serif" font-size="14.00">ProductModule</text>
</g>
<!-- ProductModule&#45;&gt;AppModule -->
<g id="edge10" class="edge">
<title>ProductModule&#45;&gt;AppModule</title>
<path fill="none" stroke="black" d="M1174.71,-161.81C1174.71,-146.82 1174.71,-128 1174.71,-128 1174.71,-128 805.67,-128 805.67,-128 805.67,-128 805.67,-227.93 805.67,-227.93"/>
<polygon fill="black" stroke="black" points="802.17,-227.93 805.67,-237.93 809.17,-227.93 802.17,-227.93"/>
</g>
<!-- RolesModule -->
<g id="node11" class="node">
<title>RolesModule</title>
<polygon fill="#8dd3c7" stroke="black" points="1381.94,-198 1378.94,-202 1357.94,-202 1354.94,-198 1290.06,-198 1290.06,-162 1381.94,-162 1381.94,-198"/>
<text text-anchor="middle" x="1336" y="-175.8" font-family="Times,serif" font-size="14.00">RolesModule</text>
</g>
<!-- RolesModule&#45;&gt;AppModule -->
<g id="edge11" class="edge">
<title>RolesModule&#45;&gt;AppModule</title>
<path fill="none" stroke="black" d="M1336,-198.19C1336,-206.28 1336,-214 1336,-214 1336,-214 750.81,-214 750.81,-214 750.81,-214 750.81,-227.94 750.81,-227.94"/>
<polygon fill="black" stroke="black" points="747.31,-227.94 750.81,-237.94 754.31,-227.94 747.31,-227.94"/>
</g>
<!-- SitesModule -->
<g id="node12" class="node">
<title>SitesModule</title>
<polygon fill="#8dd3c7" stroke="black" points="1486.27,-198 1483.27,-202 1462.27,-202 1459.27,-198 1399.73,-198 1399.73,-162 1486.27,-162 1486.27,-198"/>
<text text-anchor="middle" x="1443" y="-175.8" font-family="Times,serif" font-size="14.00">SitesModule</text>
</g>
<!-- SitesModule&#45;&gt;AppModule -->
<g id="edge12" class="edge">
<title>SitesModule&#45;&gt;AppModule</title>
<path fill="none" stroke="black" d="M1443,-198.07C1443,-207.46 1443,-217 1443,-217 1443,-217 758.35,-217 758.35,-217 758.35,-217 758.35,-227.87 758.35,-227.87"/>
<polygon fill="black" stroke="black" points="754.85,-227.87 758.35,-237.87 761.85,-227.87 754.85,-227.87"/>
</g>
<!-- UsersModule -->
<g id="node13" class="node">
<title>UsersModule</title>
<polygon fill="#8dd3c7" stroke="black" points="1595.92,-198 1592.92,-202 1571.92,-202 1568.92,-198 1504.08,-198 1504.08,-162 1595.92,-162 1595.92,-198"/>
<text text-anchor="middle" x="1550" y="-175.8" font-family="Times,serif" font-size="14.00">UsersModule</text>
</g>
<!-- UsersModule&#45;&gt;AppModule -->
<g id="edge13" class="edge">
<title>UsersModule&#45;&gt;AppModule</title>
<path fill="none" stroke="black" d="M1550,-198.13C1550,-208.71 1550,-220 1550,-220 1550,-220 765.9,-220 765.9,-220 765.9,-220 765.9,-227.58 765.9,-227.58"/>
<polygon fill="black" stroke="black" points="762.4,-227.58 765.9,-237.58 769.4,-227.58 762.4,-227.58"/>
</g>
<!-- UsertypeModule -->
<g id="node14" class="node">
<title>UsertypeModule</title>
<polygon fill="#8dd3c7" stroke="black" points="1724.08,-198 1721.08,-202 1700.08,-202 1697.08,-198 1613.92,-198 1613.92,-162 1724.08,-162 1724.08,-198"/>
<text text-anchor="middle" x="1669" y="-175.8" font-family="Times,serif" font-size="14.00">UsertypeModule</text>
</g>
<!-- UsertypeModule&#45;&gt;AppModule -->
<g id="edge14" class="edge">
<title>UsertypeModule&#45;&gt;AppModule</title>
<path fill="none" stroke="black" d="M1669,-198.06C1669,-209.44 1669,-222 1669,-222 1669,-222 773.44,-222 773.44,-222 773.44,-222 773.44,-227.81 773.44,-227.81"/>
<polygon fill="black" stroke="black" points="769.94,-227.81 773.44,-237.81 776.94,-227.81 769.94,-227.81"/>
</g>
<!-- AppService -->
<g id="node16" class="node">
<title>AppService</title>
<ellipse fill="#fdb462" stroke="black" cx="747" cy="-180" rx="56.74" ry="18"/>
<text text-anchor="middle" x="747" y="-175.8" font-family="Times,serif" font-size="14.00">AppService</text>
</g>
<!-- AppService&#45;&gt;AppModule -->
<g id="edge15" class="edge">
<title>AppService&#45;&gt;AppModule</title>
<path fill="none" stroke="black" d="M735.72,-198.01C735.72,-198.01 735.72,-227.85 735.72,-227.85"/>
<polygon fill="black" stroke="black" points="732.22,-227.85 735.72,-237.85 739.22,-227.85 732.22,-227.85"/>
</g>
<!-- AuthService -->
<g id="node18" class="node">
<title>AuthService</title>
<ellipse fill="#fdb462" stroke="black" cx="551" cy="-104" rx="59.11" ry="18"/>
<text text-anchor="middle" x="551" y="-99.8" font-family="Times,serif" font-size="14.00">AuthService</text>
</g>
<!-- AuthService&#45;&gt;AuthModule -->
<g id="edge17" class="edge">
<title>AuthService&#45;&gt;AuthModule</title>
<path fill="none" stroke="black" d="M553.16,-122.14C553.16,-128.46 553.16,-134 553.16,-134 553.16,-134 886.59,-134 886.59,-134 886.59,-134 886.59,-151.82 886.59,-151.82"/>
<polygon fill="black" stroke="black" points="883.09,-151.82 886.59,-161.82 890.09,-151.82 883.09,-151.82"/>
</g>
<!-- KeycloakConfigService -->
<g id="node19" class="node">
<title>KeycloakConfigService</title>
<ellipse fill="#fdb462" stroke="black" cx="370" cy="-104" rx="103.63" ry="18"/>
<text text-anchor="middle" x="370" y="-99.8" font-family="Times,serif" font-size="14.00">KeycloakConfigService</text>
</g>
<!-- KeycloakConfigService&#45;&gt;AuthModule -->
<g id="edge18" class="edge">
<title>KeycloakConfigService&#45;&gt;AuthModule</title>
<path fill="none" stroke="black" d="M370,-122C370,-131 370,-140 370,-140 370,-140 857.41,-140 857.41,-140 857.41,-140 857.41,-151.87 857.41,-151.87"/>
<polygon fill="black" stroke="black" points="853.91,-151.87 857.41,-161.87 860.91,-151.87 853.91,-151.87"/>
</g>
<!-- CategoryService -->
<g id="node20" class="node">
<title>CategoryService</title>
<ellipse fill="#fdb462" stroke="black" cx="903" cy="-104" rx="75.28" ry="18"/>
<text text-anchor="middle" x="903" y="-99.8" font-family="Times,serif" font-size="14.00">CategoryService</text>
</g>
<!-- CategoryService&#45;&gt;CategoryModule -->
<g id="edge19" class="edge">
<title>CategoryService&#45;&gt;CategoryModule</title>
<path fill="none" stroke="black" d="M955.98,-116.89C955.98,-116.89 955.98,-151.91 955.98,-151.91"/>
<polygon fill="black" stroke="black" points="952.48,-151.91 955.98,-161.91 959.48,-151.91 952.48,-151.91"/>
</g>
<!-- KeycloakService -->
<g id="node21" class="node">
<title>KeycloakService</title>
<ellipse fill="#fdb462" stroke="black" cx="573" cy="-180" rx="76.98" ry="18"/>
<text text-anchor="middle" x="573" y="-175.8" font-family="Times,serif" font-size="14.00">KeycloakService</text>
</g>
<!-- KeycloakService&#45;&gt;KeycloakModule -->
<g id="edge21" class="edge">
<title>KeycloakService&#45;&gt;KeycloakModule</title>
<path fill="none" stroke="black" d="M573,-198.24C573,-213.57 573,-233 573,-233 573,-233 872.59,-233 872.59,-233 872.59,-233 872.59,-233.49 872.59,-233.49"/>
<polygon fill="black" stroke="black" points="869.09,-227.88 872.59,-237.88 876.09,-227.88 869.09,-227.88"/>
</g>
<!-- ChangePasswordMailService -->
<g id="node26" class="node">
<title>ChangePasswordMailService</title>
<ellipse fill="#fdb462" stroke="black" cx="3087" cy="-256" rx="124.98" ry="18"/>
<text text-anchor="middle" x="3087" y="-251.8" font-family="Times,serif" font-size="14.00">ChangePasswordMailService</text>
</g>
<!-- ChangePasswordMailService&#45;&gt;MailModule -->
<g id="edge26" class="edge">
<title>ChangePasswordMailService&#45;&gt;MailModule</title>
<path fill="none" stroke="black" d="M2987.24,-245.11C2987.24,-221.97 2987.24,-170 2987.24,-170 2987.24,-170 2096.03,-170 2096.03,-170"/>
<polygon fill="black" stroke="black" points="2096.03,-166.5 2086.03,-170 2096.03,-173.5 2096.03,-166.5"/>
</g>
<!-- ConfirmCreateUserService -->
<g id="node27" class="node">
<title>ConfirmCreateUserService</title>
<ellipse fill="#fdb462" stroke="black" cx="2828" cy="-256" rx="116.28" ry="18"/>
<text text-anchor="middle" x="2828" y="-251.8" font-family="Times,serif" font-size="14.00">ConfirmCreateUserService</text>
</g>
<!-- ConfirmCreateUserService&#45;&gt;MailModule -->
<g id="edge27" class="edge">
<title>ConfirmCreateUserService&#45;&gt;MailModule</title>
<path fill="none" stroke="black" d="M2828,-237.68C2828,-214.34 2828,-177 2828,-177 2828,-177 2096.04,-177 2096.04,-177"/>
<polygon fill="black" stroke="black" points="2096.04,-173.5 2086.04,-177 2096.04,-180.5 2096.04,-173.5"/>
</g>
<!-- ResetPasswordMailService -->
<g id="node28" class="node">
<title>ResetPasswordMailService</title>
<ellipse fill="#fdb462" stroke="black" cx="2577" cy="-256" rx="116.88" ry="18"/>
<text text-anchor="middle" x="2577" y="-251.8" font-family="Times,serif" font-size="14.00">ResetPasswordMailService</text>
</g>
<!-- ResetPasswordMailService&#45;&gt;MailModule -->
<g id="edge28" class="edge">
<title>ResetPasswordMailService&#45;&gt;MailModule</title>
<path fill="none" stroke="black" d="M2577,-237.83C2577,-216.5 2577,-184 2577,-184 2577,-184 2096.25,-184 2096.25,-184"/>
<polygon fill="black" stroke="black" points="2096.25,-180.5 2086.25,-184 2096.25,-187.5 2096.25,-180.5"/>
</g>
<!-- TwoFactorAuthenticationMailService -->
<g id="node29" class="node">
<title>TwoFactorAuthenticationMailService</title>
<ellipse fill="#fdb462" stroke="black" cx="2284" cy="-256" rx="157.98" ry="18"/>
<text text-anchor="middle" x="2284" y="-251.8" font-family="Times,serif" font-size="14.00">TwoFactorAuthenticationMailService</text>
</g>
<!-- TwoFactorAuthenticationMailService&#45;&gt;MailModule -->
<g id="edge29" class="edge">
<title>TwoFactorAuthenticationMailService&#45;&gt;MailModule</title>
<path fill="none" stroke="black" d="M2154.43,-245.56C2154.43,-227.18 2154.43,-191 2154.43,-191 2154.43,-191 2096.08,-191 2096.08,-191"/>
<polygon fill="black" stroke="black" points="2096.08,-187.5 2086.08,-191 2096.08,-194.5 2096.08,-187.5"/>
</g>
<!-- PlansService -->
<g id="node30" class="node">
<title>PlansService</title>
<ellipse fill="#fdb462" stroke="black" cx="1079" cy="-104" rx="60.83" ry="18"/>
<text text-anchor="middle" x="1079" y="-99.8" font-family="Times,serif" font-size="14.00">PlansService</text>
</g>
<!-- PlansService&#45;&gt;PlansModule -->
<g id="edge30" class="edge">
<title>PlansService&#45;&gt;PlansModule</title>
<path fill="none" stroke="black" d="M1100.99,-120.87C1100.99,-120.87 1100.99,-151.85 1100.99,-151.85"/>
<polygon fill="black" stroke="black" points="1097.49,-151.85 1100.99,-161.85 1104.49,-151.85 1097.49,-151.85"/>
</g>
<!-- ProductService -->
<g id="node31" class="node">
<title>ProductService</title>
<ellipse fill="#fdb462" stroke="black" cx="1250" cy="-104" rx="70.06" ry="18"/>
<text text-anchor="middle" x="1250" y="-99.8" font-family="Times,serif" font-size="14.00">ProductService</text>
</g>
<!-- ProductService&#45;&gt;ProductModule -->
<g id="edge31" class="edge">
<title>ProductService&#45;&gt;ProductModule</title>
<path fill="none" stroke="black" d="M1226.26,-121.25C1226.26,-121.25 1226.26,-151.76 1226.26,-151.76"/>
<polygon fill="black" stroke="black" points="1222.76,-151.76 1226.26,-161.76 1229.76,-151.76 1222.76,-151.76"/>
</g>
<!-- RolesService -->
<g id="node32" class="node">
<title>RolesService</title>
<ellipse fill="#fdb462" stroke="black" cx="1422" cy="-104" rx="61.97" ry="18"/>
<text text-anchor="middle" x="1422" y="-99.8" font-family="Times,serif" font-size="14.00">RolesService</text>
</g>
<!-- RolesService&#45;&gt;RolesModule -->
<g id="edge32" class="edge">
<title>RolesService&#45;&gt;RolesModule</title>
<path fill="none" stroke="black" d="M1370.87,-114.25C1370.87,-114.25 1370.87,-151.77 1370.87,-151.77"/>
<polygon fill="black" stroke="black" points="1367.37,-151.77 1370.87,-161.77 1374.37,-151.77 1367.37,-151.77"/>
</g>
<!-- SitesService -->
<g id="node33" class="node">
<title>SitesService</title>
<ellipse fill="#fdb462" stroke="black" cx="1583" cy="-104" rx="58.54" ry="18"/>
<text text-anchor="middle" x="1583" y="-99.8" font-family="Times,serif" font-size="14.00">SitesService</text>
</g>
<!-- SitesService&#45;&gt;SitesModule -->
<g id="edge33" class="edge">
<title>SitesService&#45;&gt;SitesModule</title>
<path fill="none" stroke="black" d="M1524.04,-104C1508.18,-104 1495.34,-104 1495.34,-104 1495.34,-104 1495.34,-180 1495.34,-180 1495.34,-180 1494.47,-180 1494.47,-180"/>
<polygon fill="black" stroke="black" points="1496.7,-176.5 1486.7,-180 1496.7,-183.5 1496.7,-176.5"/>
</g>
<!-- TemplateManagerService -->
<g id="node34" class="node">
<title>TemplateManagerService</title>
<ellipse fill="#fdb462" stroke="black" cx="3123" cy="-104" rx="110.55" ry="18"/>
<text text-anchor="middle" x="3123" y="-99.8" font-family="Times,serif" font-size="14.00">TemplateManagerService</text>
</g>
<!-- TemplateManagerModule -->
<g id="node35" class="node">
<title>TemplateManagerModule</title>
<polygon fill="#8dd3c7" stroke="black" points="3204.17,-198 3201.17,-202 3180.17,-202 3177.17,-198 3041.83,-198 3041.83,-162 3204.17,-162 3204.17,-198"/>
<text text-anchor="middle" x="3123" y="-175.8" font-family="Times,serif" font-size="14.00">TemplateManagerModule</text>
</g>
<!-- TemplateManagerService&#45;&gt;TemplateManagerModule -->
<g id="edge34" class="edge">
<title>TemplateManagerService&#45;&gt;TemplateManagerModule</title>
<path fill="none" stroke="black" d="M3123,-122.01C3123,-122.01 3123,-151.85 3123,-151.85"/>
<polygon fill="black" stroke="black" points="3119.5,-151.85 3123,-161.85 3126.5,-151.85 3119.5,-151.85"/>
</g>
<!-- UserProfileService -->
<g id="node36" class="node">
<title>UserProfileService</title>
<ellipse fill="#fdb462" stroke="black" cx="1908" cy="-104" rx="84.5" ry="18"/>
<text text-anchor="middle" x="1908" y="-99.8" font-family="Times,serif" font-size="14.00">UserProfileService</text>
</g>
<!-- UserProfileService&#45;&gt;UsersModule -->
<g id="edge35" class="edge">
<title>UserProfileService&#45;&gt;UsersModule</title>
<path fill="none" stroke="black" d="M1837.96,-114.43C1837.96,-128.28 1837.96,-151 1837.96,-151 1837.96,-151 1571.88,-151 1571.88,-151 1571.88,-151 1571.88,-152.08 1571.88,-152.08"/>
<polygon fill="black" stroke="black" points="1568.38,-151.8 1571.88,-161.8 1575.38,-151.8 1568.38,-151.8"/>
</g>
<!-- UsersService -->
<g id="node37" class="node">
<title>UsersService</title>
<ellipse fill="#fdb462" stroke="black" cx="1744" cy="-104" rx="61.95" ry="18"/>
<text text-anchor="middle" x="1744" y="-99.8" font-family="Times,serif" font-size="14.00">UsersService</text>
</g>
<!-- UsersService&#45;&gt;UsersModule -->
<g id="edge36" class="edge">
<title>UsersService&#45;&gt;UsersModule</title>
<path fill="none" stroke="black" d="M1696.03,-115.64C1696.03,-127.76 1696.03,-145 1696.03,-145 1696.03,-145 1548.06,-145 1548.06,-145 1548.06,-145 1548.06,-151.68 1548.06,-151.68"/>
<polygon fill="black" stroke="black" points="1544.56,-151.68 1548.06,-161.68 1551.56,-151.68 1544.56,-151.68"/>
</g>
<!-- UsertypeService -->
<g id="node38" class="node">
<title>UsertypeService</title>
<ellipse fill="#fdb462" stroke="black" cx="2108" cy="-104" rx="74.7" ry="18"/>
<text text-anchor="middle" x="2108" y="-99.8" font-family="Times,serif" font-size="14.00">UsertypeService</text>
</g>
<!-- UsertypeService&#45;&gt;UsertypeModule -->
<g id="edge37" class="edge">
<title>UsertypeService&#45;&gt;UsertypeModule</title>
<path fill="none" stroke="black" d="M2059.57,-117.93C2059.57,-133.63 2059.57,-157 2059.57,-157 2059.57,-157 1710.04,-157 1710.04,-157 1710.04,-157 1710.04,-157.49 1710.04,-157.49"/>
<polygon fill="black" stroke="black" points="1706.54,-151.88 1710.04,-161.88 1713.54,-151.88 1706.54,-151.88"/>
</g>
</g>
</svg>
